<svg width="124.198853" height="22.464844" viewBox="0 0 124.199 22.4648" fill="none" xmlns="http://www.w3.org/2000/svg" xmlns:xlink="http://www.w3.org/1999/xlink">
	<desc>
			Created with Pixso.
	</desc>
	<defs/>
	<path id="Bookshop" d="M53.28 14.51L55.07 12.74L59.15 17.8L63.69 17.8L57.83 10.36L63.21 4.89L58.75 4.89L53.28 10.07L53.28 0L49.53 0L49.53 17.8L53.28 17.8L53.28 14.51ZM88.64 5.53Q87.35 4.7 85.53 4.7Q84.28 4.7 83.23 5.1Q82.32 5.44 81.64 6.04Q81.53 6.13 81.43 6.24L81.43 0L77.68 0L77.68 17.8L81.43 17.8L81.43 11.41Q81.43 9.69 82.27 8.82Q82.49 8.58 82.76 8.41Q83.49 7.94 84.52 7.94Q85.56 7.94 86.2 8.45Q86.34 8.56 86.47 8.7Q87.14 9.45 87.14 10.99L87.14 17.8L90.88 17.8L90.88 10.41Q90.88 7.7 89.53 6.27Q89.47 6.2 89.41 6.14Q89.05 5.79 88.64 5.53ZM14.27 10.22Q13.51 9.44 12.33 9.07Q13.08 8.68 13.59 8.08Q13.8 7.84 13.98 7.55Q14.1 7.34 14.2 7.12Q14.56 6.33 14.56 5.37Q14.56 4.37 14.15 3.57Q13.74 2.77 12.91 2.18Q11.27 1 8.2 1L0 1L0 17.8L8.68 17.8Q11.97 17.8 13.69 16.61Q14.44 16.09 14.86 15.38Q15.41 14.46 15.41 13.22Q15.41 11.9 14.82 10.93Q14.71 10.75 14.58 10.59Q14.44 10.39 14.27 10.22ZM3.86 7.89L3.86 3.93L7.72 3.93Q9.16 3.93 9.91 4.42Q10.2 4.61 10.38 4.88Q10.65 5.29 10.65 5.9Q10.65 6.49 10.38 6.91Q10.2 7.18 9.91 7.38Q9.16 7.89 7.72 7.89L3.86 7.89ZM20.74 17.23Q22.3 18 24.23 18Q26.24 18 27.83 17.18Q27.85 17.16 27.88 17.15Q28.88 16.62 29.61 15.84Q30.05 15.36 30.4 14.78Q30.6 14.45 30.75 14.11Q31.32 12.85 31.32 11.34Q31.32 9.84 30.75 8.58Q30.6 8.24 30.4 7.91Q30.05 7.32 29.59 6.84Q28.87 6.07 27.88 5.55Q27.85 5.53 27.83 5.52Q26.24 4.7 24.23 4.7Q22.3 4.7 20.74 5.46Q20.65 5.51 20.57 5.55Q19.57 6.07 18.84 6.85Q18.39 7.33 18.04 7.91Q17.85 8.22 17.7 8.55Q17.13 9.82 17.13 11.34Q17.13 12.87 17.7 14.14Q17.85 14.47 18.04 14.78Q18.38 15.35 18.83 15.83Q19.56 16.61 20.57 17.15Q20.65 17.19 20.74 17.23ZM36.46 17.23Q38.02 18 39.95 18Q41.96 18 43.55 17.18Q43.57 17.16 43.6 17.15Q44.6 16.62 45.33 15.84Q45.77 15.36 46.12 14.78Q46.32 14.45 46.47 14.11Q47.04 12.85 47.04 11.34Q47.04 9.84 46.47 8.58Q46.32 8.24 46.12 7.91Q45.77 7.32 45.31 6.84Q44.59 6.07 43.6 5.55Q43.57 5.53 43.55 5.52Q41.96 4.7 39.95 4.7Q38.02 4.7 36.46 5.46Q36.37 5.51 36.29 5.55Q35.29 6.07 34.56 6.85Q34.11 7.33 33.76 7.91Q33.57 8.22 33.42 8.55Q32.85 9.82 32.85 11.34Q32.85 12.87 33.42 14.14Q33.57 14.47 33.76 14.78Q34.1 15.35 34.55 15.83Q35.28 16.61 36.29 17.15Q36.37 17.19 36.46 17.23ZM67.04 17.8Q68.14 18 69.28 18Q71.18 18 72.56 17.48Q73.94 16.96 74.66 16.03Q74.99 15.59 75.17 15.1Q75.38 14.53 75.38 13.89Q75.38 12.57 74.73 11.79Q74.69 11.74 74.64 11.68Q74.17 11.18 73.59 10.88Q73.26 10.7 72.88 10.59Q71.88 10.29 70.29 10.03Q68.88 9.81 68.23 9.57Q67.83 9.42 67.67 9.14Q67.58 8.96 67.58 8.73Q67.58 8.6 67.62 8.47Q67.73 8.12 68.17 7.87Q68.78 7.53 69.98 7.53Q71.22 7.53 72.34 7.89Q73.04 8.12 73.7 8.49L74.95 5.83Q74.06 5.3 72.7 5Q71.71 4.78 70.71 4.72Q70.35 4.7 69.98 4.7Q68.13 4.7 66.77 5.23Q65.42 5.75 64.71 6.7Q64.42 7.09 64.25 7.52Q64 8.15 64 8.87Q64 10.28 64.7 11.07Q64.73 11.1 64.76 11.13Q65.18 11.57 65.68 11.86Q66.09 12.09 66.54 12.24Q67.58 12.55 69.16 12.79Q70.51 12.96 71.15 13.2Q71.59 13.36 71.73 13.66Q71.8 13.81 71.8 13.99Q71.8 14.22 71.71 14.4Q71.34 15.16 69.43 15.16Q68.25 15.16 67.03 14.81Q65.8 14.47 64.94 13.91L63.69 16.6Q64.61 17.2 66.14 17.6Q66.59 17.72 67.04 17.8ZM97.06 17.23Q98.62 18 100.55 18Q102.56 18 104.15 17.18Q104.17 17.16 104.2 17.15Q105.2 16.62 105.93 15.84Q106.38 15.36 106.72 14.78Q106.92 14.45 107.07 14.11Q107.64 12.85 107.64 11.34Q107.64 9.84 107.07 8.58Q106.92 8.24 106.72 7.91Q106.37 7.32 105.91 6.84Q105.19 6.07 104.2 5.55Q104.17 5.53 104.15 5.52Q102.56 4.7 100.55 4.7Q98.62 4.7 97.06 5.46Q96.97 5.51 96.89 5.55Q95.89 6.07 95.16 6.85Q94.71 7.33 94.36 7.91Q94.17 8.22 94.02 8.55Q93.45 9.82 93.45 11.34Q93.45 12.87 94.02 14.14Q94.17 14.47 94.36 14.78Q94.7 15.35 95.15 15.83Q95.88 16.61 96.89 17.15Q96.97 17.19 97.06 17.23ZM120.31 5.18Q119.13 4.7 117.76 4.7Q115.73 4.7 114.44 5.68Q114.04 5.98 113.71 6.38L113.71 4.89L110.13 4.89L110.13 22.46L113.88 22.46L113.88 16.44Q114.25 16.85 114.71 17.16Q115.95 18 117.76 18Q119.13 18 120.31 17.52Q120.68 17.37 121.04 17.17Q121.71 16.79 122.24 16.28Q122.89 15.66 123.35 14.84Q124.19 13.34 124.19 11.34Q124.19 9.35 123.35 7.85Q122.89 7.02 122.23 6.4Q121.7 5.9 121.04 5.53Q120.68 5.33 120.31 5.18ZM25.82 14.55Q25.12 14.92 24.23 14.92Q23.36 14.92 22.68 14.57Q22.23 14.33 21.86 13.95Q21.69 13.78 21.55 13.58Q20.92 12.69 20.92 11.34Q20.92 10.02 21.55 9.12Q21.69 8.92 21.86 8.74Q22.24 8.35 22.69 8.12Q23.37 7.77 24.23 7.77Q25.12 7.77 25.81 8.14Q26.24 8.37 26.6 8.74Q26.76 8.91 26.89 9.09Q27.52 9.99 27.52 11.34Q27.52 12.71 26.88 13.61Q26.75 13.79 26.6 13.95Q26.25 14.32 25.82 14.55ZM41.54 14.55Q40.84 14.92 39.95 14.92Q39.08 14.92 38.4 14.57Q37.95 14.33 37.58 13.95Q37.41 13.78 37.27 13.58Q36.64 12.69 36.64 11.34Q36.64 10.02 37.27 9.12Q37.41 8.92 37.58 8.74Q37.96 8.35 38.41 8.12Q39.09 7.77 39.95 7.77Q40.84 7.77 41.53 8.14Q41.96 8.37 42.32 8.74Q42.48 8.91 42.61 9.09Q43.24 9.99 43.24 11.34Q43.24 12.71 42.6 13.61Q42.47 13.79 42.32 13.95Q41.97 14.32 41.54 14.55ZM102.14 14.55Q101.44 14.92 100.55 14.92Q99.68 14.92 99 14.57Q98.55 14.33 98.18 13.95Q98.01 13.78 97.87 13.58Q97.24 12.69 97.24 11.34Q97.24 10.02 97.87 9.12Q98.01 8.92 98.18 8.74Q98.56 8.35 99.01 8.12Q99.69 7.77 100.55 7.77Q101.44 7.77 102.13 8.14Q102.56 8.37 102.92 8.74Q103.08 8.91 103.21 9.09Q103.85 9.99 103.85 11.34Q103.85 12.71 103.2 13.61Q103.07 13.79 102.92 13.95Q102.57 14.32 102.14 14.55ZM118.71 14.54Q118.01 14.92 117.12 14.92Q116.22 14.92 115.53 14.55Q115.1 14.32 114.75 13.95Q114.6 13.8 114.48 13.63Q113.83 12.72 113.83 11.34Q113.83 9.98 114.47 9.08Q114.6 8.9 114.75 8.74Q115.11 8.37 115.54 8.14Q116.23 7.77 117.12 7.77Q118.01 7.77 118.7 8.14Q119.13 8.37 119.48 8.74Q119.63 8.91 119.77 9.09Q120.4 9.99 120.4 11.34Q120.4 12.71 119.76 13.61Q119.63 13.79 119.48 13.95Q119.13 14.32 118.71 14.54ZM10.71 14.37Q9.93 14.87 8.4 14.87L3.86 14.87L3.86 10.72L8.4 10.72Q10.52 10.72 11.19 11.71Q11.49 12.16 11.49 12.81Q11.49 13.48 11.17 13.93Q10.99 14.19 10.71 14.37Z" fill="#1C2A39" fill-opacity="1.000000" fill-rule="evenodd"/>
</svg>
